<svg width="48" height="48" viewBox="0 0 48 48" fill="none" xmlns="http://www.w3.org/2000/svg">
<rect x="1" y="1" width="46" height="46" rx="11" fill="white"/>
<path d="M15.6 17.6C14.6 17.6 13.9 18.4 13.9 19.3V28.5C13.9 29.5 14.7 30.2 15.6 30.2H16.1V30.4L22.3 34C23.5 34.7 24.9 33.8 24.9 32.5V15.5C24.9 14.2 23.5 13.3 22.3 14L16.5 17.4C16.2 17.5 15.9 17.6 15.6 17.6Z" fill="black"/>
<path d="M27.7 27.9998C27.4 27.9998 27.2 27.7998 27.2 27.4998C27.2 27.1998 27.4 26.9998 27.7 26.9998C29.4 26.9998 30.7 25.5998 30.7 23.9998C30.7 22.3998 29.3 20.9998 27.7 20.9998C27.4 20.9998 27.2 20.7998 27.2 20.4998C27.2 20.1998 27.4 19.9998 27.7 19.9998C29.9 19.9998 31.7 21.7998 31.7 23.9998C31.7 26.1998 29.9 27.9998 27.7 27.9998Z" fill="black" stroke="black" stroke-width="0.5"/>
<path d="M27.7 30.3999C27.4 30.3999 27.2 30.1999 27.2 29.8999C27.2 29.5999 27.4 29.3999 27.7 29.3999C30.7 29.3999 33.1 26.9999 33.1 23.9999C33.1 20.9999 30.7 18.5999 27.7 18.5999C27.4 18.5999 27.2 18.3999 27.2 18.0999C27.2 17.7999 27.4 17.5999 27.7 17.5999C31.2 17.5999 34.1 20.4999 34.1 23.9999C34.1 27.4999 31.2 30.3999 27.7 30.3999Z" fill="black" stroke="black" stroke-width="0.5"/>
<rect x="1" y="1" width="46" height="46" rx="11" stroke="black" stroke-width="2"/>
</svg>
