<svg width="40" height="40" viewBox="0 0 40 40" fill="none" xmlns="http://www.w3.org/2000/svg">
<g clip-path="url(#clip0_13699_12104)">
<path d="M32.6758 2.32422C33.8477 3.49609 34.8893 4.76562 35.8008 6.13281C36.7122 7.5 37.474 8.93229 38.0859 10.4297C38.6979 11.9271 39.1732 13.4831 39.5117 15.0977C39.8503 16.7122 40.013 18.3464 40 20C40 21.6667 39.8372 23.3008 39.5117 24.9023C39.1862 26.5039 38.7174 28.0599 38.1055 29.5703C37.4935 31.0807 36.7253 32.513 35.8008 33.8672C34.8763 35.2214 33.8346 36.4909 32.6758 37.6758L30.8984 35.8984C31.9531 34.8438 32.8906 33.7044 33.7109 32.4805C34.5312 31.2565 35.2214 29.9674 35.7812 28.6133C36.3411 27.2591 36.7643 25.8594 37.0508 24.4141C37.3372 22.9688 37.4805 21.4974 37.4805 20C37.4805 18.5026 37.3372 17.0312 37.0508 15.5859C36.7643 14.1406 36.3411 12.7474 35.7812 11.4062C35.2214 10.0651 34.5312 8.77604 33.7109 7.53906C32.8906 6.30208 31.9531 5.15625 30.8984 4.10156L32.6758 2.32422ZM32.5 20C32.5 22.3438 32.0573 24.5768 31.1719 26.6992C30.2865 28.8216 29.0234 30.7161 27.3828 32.3828L25.6055 30.6055C27.0247 29.1862 28.112 27.5651 28.8672 25.7422C29.6224 23.9193 30 22.0052 30 20C30 17.9948 29.6224 16.0807 28.8672 14.2578C28.112 12.4349 27.0247 10.8138 25.6055 9.39453L27.3828 7.61719C29.0234 9.28385 30.2865 11.1784 31.1719 13.3008C32.0573 15.4232 32.5 17.6562 32.5 20ZM22.0703 12.9297C23.0208 13.8802 23.7435 14.9609 24.2383 16.1719C24.7331 17.3828 24.987 18.6589 25 20C25 21.3411 24.7526 22.6172 24.2578 23.8281C23.763 25.0391 23.0339 26.1198 22.0703 27.0703L20.3125 25.3125C21.0156 24.6094 21.556 23.8021 21.9336 22.8906C22.3112 21.9792 22.5 21.0156 22.5 20C22.5 18.9974 22.3112 18.0404 21.9336 17.1289C21.556 16.2174 21.0156 15.4036 20.3125 14.6875L22.0703 12.9297ZM13.2227 5H15V35H13.2422L5.72266 27.5H0V12.5H5.72266L13.2227 5ZM12.5 9.27734L6.77734 15H2.5V25H6.77734L12.5 30.7227V9.27734Z" fill="black"/>
</g>
<defs>
<clipPath id="clip0_13699_12104">
<rect width="40" height="40" fill="white"/>
</clipPath>
</defs>
</svg>
