<svg width="48" height="48" viewBox="0 0 48 48" fill="none" xmlns="http://www.w3.org/2000/svg">
<rect x="1" y="1" width="46" height="46" rx="11" fill="white"/>
<path d="M15.3875 17.6C14.3875 17.6 13.6875 18.4 13.6875 19.3V28.5C13.6875 29.5 14.4875 30.2 15.3875 30.2H15.8875V30.4L22.0875 34C23.2875 34.7 24.6875 33.8 24.6875 32.5V15.5C24.6875 14.2 23.2875 13.3 22.0875 14L16.2875 17.4C15.9875 17.5 15.6875 17.6 15.3875 17.6Z" fill="black"/>
<path d="M34.0875 21.9L27.5875 28.4C27.2875 28.7 26.7875 28.7 26.4875 28.4C26.1875 28.1 26.1875 27.6 26.4875 27.3L32.9875 20.8C33.2875 20.5 33.7875 20.5 34.0875 20.8C34.3875 21.1 34.3875 21.6 34.0875 21.9Z" fill="black"/>
<path d="M32.9875 28.5L26.4875 22C26.1875 21.7 26.1875 21.2 26.4875 20.9C26.7875 20.6 27.2875 20.6 27.5875 20.9L34.0875 27.4C34.3875 27.7 34.3875 28.2 34.0875 28.5C33.7875 28.7 33.2875 28.7 32.9875 28.5Z" fill="black"/>
<rect x="1" y="1" width="46" height="46" rx="11" stroke="black" stroke-width="2"/>
</svg>
